<svg width="113" height="18" viewBox="0 0 113 18" fill="none" xmlns="http://www.w3.org/2000/svg">
<path d="M10.0076 5.216C10.9783 5.216 11.709 5.46667 12.1996 5.968C12.6903 6.46933 12.9356 7.27467 12.9356 8.384V14H11.2396V8.608C11.2396 7.94667 11.1063 7.45067 10.8396 7.12C10.5836 6.77867 10.1783 6.608 9.62363 6.608C8.85563 6.608 8.30629 6.848 7.97563 7.328C7.64496 7.79733 7.47963 8.48 7.47963 9.376V14H5.79963V8.608C5.79963 8.17067 5.73563 7.80267 5.60763 7.504C5.49029 7.20533 5.31429 6.98133 5.07963 6.832C4.84496 6.68267 4.54096 6.608 4.16763 6.608C3.63429 6.608 3.21296 6.72533 2.90363 6.96C2.59429 7.19467 2.37029 7.54133 2.23163 8C2.10363 8.448 2.03963 8.99733 2.03963 9.648V14H0.343625V5.376H1.68763L1.92763 6.528H2.02363C2.20496 6.22933 2.42363 5.984 2.67963 5.792C2.94629 5.6 3.23963 5.456 3.55963 5.36C3.87963 5.264 4.21029 5.216 4.55163 5.216C5.20229 5.216 5.75163 5.33333 6.19963 5.568C6.64763 5.792 6.97296 6.13867 7.17563 6.608H7.30363C7.58096 6.128 7.96496 5.776 8.45563 5.552C8.94629 5.328 9.46363 5.216 10.0076 5.216ZM18.8751 5.216C19.9631 5.216 20.7738 5.456 21.3071 5.936C21.8405 6.40533 22.1071 7.14667 22.1071 8.16V14H20.9071L20.5711 12.8H20.5071C20.2618 13.1093 20.0058 13.3653 19.7391 13.568C19.4831 13.7707 19.1845 13.92 18.8431 14.016C18.5125 14.112 18.1071 14.16 17.6271 14.16C17.1151 14.16 16.6511 14.0693 16.2351 13.888C15.8298 13.696 15.5098 13.408 15.2751 13.024C15.0405 12.6293 14.9231 12.1387 14.9231 11.552C14.9231 10.6773 15.2538 10.0107 15.9151 9.552C16.5871 9.09333 17.6058 8.84267 18.9711 8.8L20.4431 8.752V8.272C20.4431 7.632 20.2991 7.184 20.0111 6.928C19.7231 6.672 19.3178 6.544 18.7951 6.544C18.3471 6.544 17.9205 6.608 17.5151 6.736C17.1098 6.864 16.7258 7.01867 16.3631 7.2L15.8191 5.968C16.2245 5.75467 16.6885 5.57867 17.2111 5.44C17.7445 5.29067 18.2991 5.216 18.8751 5.216ZM19.2751 9.888C18.2938 9.93067 17.6111 10.096 17.2271 10.384C16.8538 10.6613 16.6671 11.056 16.6671 11.568C16.6671 12.016 16.8005 12.3413 17.0671 12.544C17.3445 12.7467 17.6911 12.848 18.1071 12.848C18.7791 12.848 19.3338 12.6613 19.7711 12.288C20.2085 11.9147 20.4271 11.3547 20.4271 10.608V9.856L19.2751 9.888ZM27.6786 14.16C26.644 14.16 25.8066 13.7867 25.1666 13.04C24.5373 12.2933 24.2226 11.184 24.2226 9.712C24.2226 8.22933 24.5426 7.10933 25.1826 6.352C25.8226 5.59467 26.6653 5.216 27.7106 5.216C28.148 5.216 28.5266 5.27467 28.8466 5.392C29.1773 5.49867 29.46 5.648 29.6946 5.84C29.94 6.032 30.148 6.24533 30.3186 6.48H30.4146C30.3933 6.33067 30.3666 6.11733 30.3346 5.84C30.3026 5.552 30.2866 5.296 30.2866 5.072V1.84H31.9826V14H30.6546L30.3666 12.848H30.2866C30.1266 13.0933 29.924 13.3173 29.6786 13.52C29.444 13.712 29.1613 13.8667 28.8306 13.984C28.5 14.1013 28.116 14.16 27.6786 14.16ZM28.0786 12.768C28.9106 12.768 29.4973 12.5387 29.8386 12.08C30.18 11.6107 30.3506 10.912 30.3506 9.984V9.728C30.3506 8.71467 30.1853 7.94133 29.8546 7.408C29.5346 6.87467 28.9373 6.608 28.0626 6.608C27.3693 6.608 26.8466 6.89067 26.4946 7.456C26.1426 8.01067 25.9666 8.77333 25.9666 9.744C25.9666 10.7147 26.1426 11.4613 26.4946 11.984C26.8466 12.5067 27.3746 12.768 28.0786 12.768ZM38.0325 5.216C38.7898 5.216 39.4405 5.376 39.9845 5.696C40.5285 6.00533 40.9445 6.45333 41.2325 7.04C41.5312 7.62667 41.6805 8.32 41.6805 9.12V10.048H35.8885C35.9098 10.9333 36.1392 11.6107 36.5765 12.08C37.0245 12.5493 37.6485 12.784 38.4485 12.784C39.0032 12.784 39.4938 12.736 39.9205 12.64C40.3578 12.5333 40.8058 12.3787 41.2645 12.176V13.584C40.8378 13.776 40.4005 13.92 39.9525 14.016C39.5152 14.112 38.9925 14.16 38.3845 14.16C37.5525 14.16 36.8165 13.9947 36.1765 13.664C35.5365 13.3333 35.0352 12.8427 34.6725 12.192C34.3205 11.5307 34.1445 10.72 34.1445 9.76C34.1445 8.78933 34.3045 7.968 34.6245 7.296C34.9552 6.624 35.4085 6.112 35.9845 5.76C36.5712 5.39733 37.2538 5.216 38.0325 5.216ZM38.0325 6.528C37.4245 6.528 36.9338 6.72533 36.5605 7.12C36.1978 7.51467 35.9845 8.07467 35.9205 8.8H39.9845C39.9845 8.352 39.9152 7.95733 39.7765 7.616C39.6378 7.27467 39.4245 7.008 39.1365 6.816C38.8485 6.624 38.4805 6.528 38.0325 6.528ZM49.649 4.768C49.649 5.12 49.6383 5.456 49.617 5.776C49.6063 6.08533 49.5903 6.33067 49.569 6.512H49.649C49.8943 6.14933 50.225 5.84533 50.641 5.6C51.057 5.35467 51.5957 5.232 52.257 5.232C53.2917 5.232 54.1237 5.60533 54.753 6.352C55.393 7.09867 55.713 8.208 55.713 9.68C55.713 10.672 55.569 11.4987 55.281 12.16C54.993 12.8213 54.5877 13.3227 54.065 13.664C53.5423 13.9947 52.9343 14.16 52.241 14.16C51.569 14.16 51.0303 14.0427 50.625 13.808C50.2197 13.5627 49.8943 13.2747 49.649 12.944H49.521L49.201 14H47.953V1.84H49.649V4.768ZM51.857 6.608C51.3023 6.608 50.865 6.71467 50.545 6.928C50.225 7.14133 49.9957 7.46667 49.857 7.904C49.7183 8.34133 49.649 8.896 49.649 9.568V9.696C49.649 10.688 49.809 11.4507 50.129 11.984C50.449 12.5067 51.0357 12.768 51.889 12.768C52.5717 12.768 53.089 12.5013 53.441 11.968C53.793 11.4347 53.969 10.6667 53.969 9.664C53.969 8.65067 53.793 7.888 53.441 7.376C53.089 6.864 52.561 6.608 51.857 6.608ZM56.2504 5.376H58.0744L59.8664 10.272C59.9624 10.5173 60.0477 10.7573 60.1224 10.992C60.197 11.2267 60.261 11.4613 60.3144 11.696C60.3784 11.92 60.4264 12.144 60.4584 12.368H60.5224C60.5757 12.0907 60.661 11.7653 60.7784 11.392C60.8957 11.008 61.0184 10.6293 61.1464 10.256L62.8424 5.376H64.6664L60.9704 15.168C60.7677 15.7227 60.517 16.1973 60.2184 16.592C59.9197 16.9973 59.5624 17.3067 59.1464 17.52C58.741 17.7333 58.261 17.84 57.7064 17.84C57.4397 17.84 57.2104 17.824 57.0184 17.792C56.8264 17.7707 56.661 17.744 56.5224 17.712V16.368C56.6397 16.3893 56.7784 16.4107 56.9384 16.432C57.109 16.4533 57.285 16.464 57.4664 16.464C57.797 16.464 58.0797 16.4 58.3144 16.272C58.5597 16.144 58.7624 15.9627 58.9224 15.728C59.093 15.4933 59.237 15.2267 59.3544 14.928L59.7064 14L56.2504 5.376ZM80.3321 0.783999H81.6601V15.248H80.3321V0.783999ZM70.2201 10.4H70.8921C71.7881 10.4 72.9561 10.352 74.2841 10.048L74.4281 11.152C73.0041 11.472 71.8521 11.504 70.8921 11.504H70.2201V10.4ZM70.2201 2.256H74.1401V3.36H71.5481V10.96H70.2201V2.256ZM74.9401 10.4H75.6921C77.1321 10.4 78.2361 10.352 79.5321 10.048L79.6601 11.152C78.3001 11.472 77.1961 11.504 75.6921 11.504H74.9401V10.4ZM74.9401 2.256H79.0201V3.36H76.2681V10.976H74.9401V2.256ZM84.3469 7.904H97.4189V8.992H84.3469V7.904ZM90.2189 5.584H91.5309V8.352H90.2189V5.584ZM85.9949 5.168H95.8989V6.256H85.9949V5.168ZM85.9949 1.44H95.7869V2.512H87.3069V5.808H85.9949V1.44ZM90.8589 10.032C93.9469 10.032 95.8189 10.976 95.8189 12.624C95.8189 14.304 93.9469 15.232 90.8589 15.232C87.7709 15.232 85.8989 14.304 85.8989 12.624C85.8989 10.976 87.7709 10.032 90.8589 10.032ZM90.8589 11.056C88.6029 11.056 87.2429 11.632 87.2429 12.624C87.2429 13.632 88.6029 14.192 90.8589 14.192C93.1309 14.192 94.4749 13.632 94.4749 12.624C94.4749 11.632 93.1309 11.056 90.8589 11.056ZM108.954 0.783999H110.282V8.608H108.954V0.783999ZM109.914 4.192H112.426V5.312H109.914V4.192ZM104.938 1.648H106.378C106.378 5.296 103.818 7.744 99.5936 8.784L99.0816 7.696C102.826 6.8 104.938 4.832 104.938 2.304V1.648ZM99.7216 1.648H105.738V2.736H99.7216V1.648ZM101.146 9.264H102.458V11.072H108.97V9.264H110.282V15.056H101.146V9.264ZM102.458 12.128V13.984H108.97V12.128H102.458Z" fill="#F1EDFF"/>
</svg>
